# xmcd
#
# Track frame offsets:
#	150
#	11067
#	24052
#	36617
#	47135
#	59070
#	68782
#	77270
#	86650
#	98430
#	109732
#	120015
#	129985
#	140630
#
# Disc length: 1983 seconds
#
# Revision: 1
# Processed by: cddbd v1.5.2PL0 Copyright (c) Steve Scherf et al.
# Submitted via: audiograbber 1.83.01
#
DISCID=ad07bd0e
DTITLE=Mike Turner - Old Time Banjo Pickin 'Instrumental Hits'
DYEAR=2005
DGENRE=Blue Grass
TTITLE0=Swanee River/Old Susanna Medley
TTITLE1=Dueling Banjo
TTITLE2=Bells Of St. Mary
TTITLE3=Will The Circle Be Unbroken
TTITLE4=Train 45 (Rueben)
TTITLE5=Talking Banjo
TTITLE6=Beverly Hillbilly Theme
TTITLE7=Home Sweet Home
TTITLE8=Grandfather's Clock
TTITLE9=John Henry
TTITLE10=I Saw The Light
TTITLE11=Old Joe Clark
TTITLE12=Dear Old Dixie
TTITLE13=Cripple Creek (From Hee Haw)
EXTD=
EXTT0=
EXTT1=
EXTT2=
EXTT3=
EXTT4=
EXTT5=
EXTT6=
EXTT7=
EXTT8=
EXTT9=
EXTT10=
EXTT11=
EXTT12=
EXTT13=
PLAYORDER=
